<?xml version="1.0" encoding="UTF-8"?>
<svg width="640" height="480" version="1.1" viewBox="0 0 169.33 127" xmlns="http://www.w3.org/2000/svg" xmlns:cc="http://creativecommons.org/ns#" xmlns:dc="http://purl.org/dc/elements/1.1/" xmlns:osb="http://www.openswatchbook.org/uri/2009/osb" xmlns:rdf="http://www.w3.org/1999/02/22-rdf-syntax-ns#" xmlns:xlink="http://www.w3.org/1999/xlink">
 <defs>
  <linearGradient id="linearGradient3071" x1="43.405" x2="214.36" y1="35.095" y2="134.74" gradientUnits="userSpaceOnUse">
   <stop stop-color="#a9c8cf" offset="0"/>
   <stop stop-color="#a9c8e3" stop-opacity="0" offset="1"/>
  </linearGradient>
 </defs>
 <metadata>
  <rdf:RDF>
   <cc:Work rdf:about="">
    <dc:format>image/svg+xml</dc:format>
    <dc:type rdf:resource="http://purl.org/dc/dcmitype/StillImage"/>
    <dc:title/>
   </cc:Work>
  </rdf:RDF>
 </metadata>
 <g stroke-miterlimit="2">
  <rect x=".0066249" y="-.094135" width="169.32" height="127.19" fill="url(#linearGradient3071)" stroke-width=".25559" style="mix-blend-mode:normal"/>
  <path d="m65.207 28.107a24.374 24.333 0 0 0-20.627 11.428 13.994 15.349 0 0 0-4.7314-0.90463 13.994 15.349 0 0 0-13.795 12.772 13.994 15.349 0 0 0-13.301 15.331 13.994 15.349 0 0 0 13.994 15.349 13.994 15.349 0 0 0 0.68897-0.01898v0.01898h62.284v-0.0022a13.994 15.349 0 0 0 13.765-15.347 13.994 15.349 0 0 0-13.89-15.349 24.374 24.333 0 0 0-24.35-23.277 24.374 24.333 0 0 0-0.03782 0z" fill="#e6e6e6" stroke="#000" stroke-linecap="round" stroke-linejoin="round" stroke-width=".43158"/>
  <path d="m118.64 48.524a26.366 26.178 0 0 0-22.312 12.294 15.137 16.513 0 0 0-5.1179-0.97322 15.137 16.513 0 0 0-14.922 13.74 15.137 16.513 0 0 0-14.387 16.493 15.137 16.513 0 0 0 15.137 16.513 15.137 16.513 0 0 0 0.74525-0.0204v0.0204h67.372v-2e-3a15.137 16.513 0 0 0 14.889-16.51 15.137 16.513 0 0 0-15.025-16.513 26.366 26.178 0 0 0-26.339-25.042 26.366 26.178 0 0 0-0.0409 0z" fill="#e6e6e6" stroke="#000" stroke-linecap="round" stroke-linejoin="round" stroke-width=".46557"/>
 </g>
</svg>
